<svg width="24" height="24" viewBox="0 0 24 24" fill="none" xmlns="http://www.w3.org/2000/svg">
<g clip-path="url(#clip0_428_4762)">
<path d="M13.175 21.5262H9.51839V9.6527H13.175V10.9832C13.5805 10.3639 14.1345 9.85568 14.7865 9.5047C15.4386 9.15364 16.1681 8.97088 16.9089 8.97299C19.7236 8.97299 21.4045 10.7814 21.4045 13.8111V21.5205H17.7479V15.1347C17.7479 13.3727 16.9795 12.4024 15.5847 12.4024C14.0769 12.4024 13.176 13.4239 13.176 15.1347V21.5262H13.175ZM7.68966 21.5262H3.11768V9.6527H7.68966V21.5282V21.5262ZM5.35049 7.75364C4.7619 7.74142 4.20153 7.49931 3.78958 7.07921C3.37763 6.65912 3.14691 6.09448 3.14691 5.50644C3.14691 4.9184 3.37763 4.35376 3.78958 3.93367C4.20153 3.51357 4.7619 3.27146 5.35049 3.25928C5.79349 3.2636 6.2254 3.39823 6.59224 3.64633C6.95909 3.89444 7.2446 4.24502 7.41308 4.65429C7.58159 5.06355 7.62566 5.51333 7.5397 5.94744C7.45381 6.38156 7.24167 6.78075 6.92989 7.09515C6.7236 7.30416 6.47768 7.47004 6.20651 7.5831C5.93534 7.69611 5.64434 7.75408 5.35049 7.75364Z" fill="black"/>
</g>
<defs>
<clipPath id="clip0_428_4762">
<rect width="24" height="24" fill="white"/>
</clipPath>
</defs>
</svg>
