<?xml version="1.0" encoding="UTF-8"?>
<svg version="1.1" xmlns="http://www.w3.org/2000/svg" width="836" height="836">
<path d="M0,0 L836,0 L836,836 L0,836 Z M227,160 L227,161 L221,161 L221,162 L213,162 L213,163 L212,163 L212,164 L208,164 L208,165 L203,165 L203,166 L202,166 L202,167 L200,167 L200,168 L198,168 L198,169 L197,169 L197,170 L194,170 L194,171 L190,171 L190,172 L189,172 L189,173 L188,173 L188,174 L186,174 L186,175 L185,175 L185,176 L182,176 L182,177 L181,177 L181,178 L180,178 L180,179 L176,179 L176,181 L174,181 L174,182 L172,182 L172,183 L171,183 L171,184 L170,184 L170,185 L169,185 L169,186 L166,186 L166,187 L165,187 L165,188 L164,188 L164,189 L163,189 L163,190 L161,190 L161,193 L160,193 L160,195 L159,195 L159,196 L158,196 L158,197 L156,197 L156,198 L154,198 L154,200 L153,200 L153,201 L152,201 L152,206 L151,206 L151,207 L150,207 L150,208 L149,208 L149,212 L148,212 L148,213 L147,213 L147,216 L145,216 L145,217 L144,217 L144,221 L142,221 L142,226 L140,226 L140,230 L139,230 L139,232 L138,232 L138,234 L137,234 L137,236 L136,236 L136,238 L135,238 L135,248 L133,248 L133,288 L134,288 L134,292 L135,292 L135,299 L136,299 L136,301 L137,301 L137,302 L138,302 L138,304 L139,304 L139,307 L140,307 L140,309 L141,309 L141,311 L142,311 L142,316 L143,316 L143,317 L144,317 L144,323 L145,323 L145,324 L146,324 L146,327 L147,327 L147,328 L149,328 L149,329 L150,329 L150,332 L151,332 L151,333 L152,333 L152,334 L154,334 L154,336 L156,336 L156,339 L157,339 L157,340 L158,340 L158,341 L160,341 L160,342 L162,342 L162,344 L163,344 L163,345 L164,345 L164,346 L165,346 L165,347 L166,347 L166,348 L170,348 L170,350 L172,350 L172,351 L174,351 L174,353 L175,353 L175,354 L176,354 L176,355 L178,355 L178,356 L180,356 L180,357 L181,357 L181,359 L184,359 L184,360 L185,360 L185,361 L186,361 L186,362 L188,362 L188,363 L189,363 L189,365 L190,365 L190,366 L193,366 L193,367 L194,367 L194,368 L196,368 L196,370 L197,370 L197,371 L199,371 L199,373 L200,373 L200,375 L204,375 L204,374 L209,374 L209,375 L208,375 L208,376 L214,376 L214,377 L220,377 L220,380 L230,380 L230,381 L231,381 L231,382 L232,382 L232,385 L237,385 L237,386 L242,386 L242,388 L240,388 L240,390 L241,390 L241,391 L239,391 L239,393 L240,393 L240,396 L247,396 L247,397 L249,397 L249,398 L243,398 L243,401 L244,401 L244,402 L245,402 L245,403 L253,403 L253,402 L256,402 L256,408 L253,408 L253,409 L252,409 L252,410 L251,410 L251,411 L249,411 L249,413 L248,413 L248,418 L245,418 L245,419 L244,419 L244,420 L243,420 L243,421 L242,421 L242,422 L238,422 L238,423 L237,423 L237,424 L235,424 L235,425 L234,425 L234,426 L233,426 L233,427 L230,427 L230,429 L229,429 L229,430 L228,430 L228,431 L227,431 L227,432 L224,432 L224,434 L223,434 L223,435 L222,435 L222,436 L219,436 L219,437 L218,437 L218,438 L216,438 L216,440 L214,440 L214,441 L212,441 L212,442 L211,442 L211,443 L210,443 L210,444 L208,444 L208,446 L206,446 L206,447 L205,447 L205,448 L204,448 L204,449 L203,449 L203,450 L202,450 L202,451 L200,451 L200,454 L198,454 L198,455 L197,455 L197,456 L194,456 L194,458 L192,458 L192,460 L189,460 L189,461 L188,461 L188,464 L186,464 L186,466 L184,466 L184,467 L183,467 L183,468 L181,468 L181,469 L180,469 L180,470 L179,470 L179,472 L177,472 L177,473 L176,473 L176,475 L175,475 L175,476 L174,476 L174,477 L173,477 L173,478 L172,478 L172,479 L171,479 L171,480 L170,480 L170,482 L168,482 L168,483 L167,483 L167,486 L166,486 L166,487 L164,487 L164,489 L163,489 L163,490 L162,490 L162,491 L161,491 L161,492 L158,492 L158,495 L157,495 L157,496 L154,496 L154,497 L152,497 L152,499 L150,499 L150,501 L149,501 L149,502 L148,502 L148,504 L147,504 L147,505 L146,505 L146,508 L144,508 L144,512 L143,512 L143,514 L142,514 L142,515 L141,515 L141,516 L140,516 L140,517 L139,517 L139,518 L136,518 L136,520 L135,520 L135,522 L134,522 L134,523 L133,523 L133,525 L132,525 L132,526 L130,526 L130,528 L129,528 L129,529 L128,529 L128,530 L127,530 L127,531 L126,531 L126,533 L125,533 L125,534 L124,534 L124,536 L122,536 L122,537 L121,537 L121,540 L119,540 L119,541 L118,541 L118,544 L116,544 L116,545 L115,545 L115,546 L114,546 L114,549 L112,549 L112,554 L111,554 L111,555 L110,555 L110,556 L109,556 L109,558 L108,558 L108,560 L107,560 L107,563 L204,563 L204,562 L205,562 L205,561 L210,561 L210,562 L224,562 L224,563 L256,563 L256,562 L264,562 L264,561 L269,561 L269,560 L275,560 L275,559 L280,559 L280,557 L282,557 L282,556 L285,556 L285,555 L288,555 L288,554 L292,554 L292,553 L294,553 L294,552 L296,552 L296,550 L300,550 L300,549 L302,549 L302,548 L305,548 L305,547 L306,547 L306,546 L308,546 L308,545 L309,545 L309,544 L310,544 L310,543 L312,543 L312,542 L314,542 L314,541 L315,541 L315,539 L316,539 L316,538 L317,538 L317,537 L318,537 L318,536 L322,536 L322,535 L323,535 L323,534 L324,534 L324,533 L325,533 L325,532 L326,532 L326,531 L328,531 L328,530 L329,530 L329,529 L330,529 L330,527 L331,527 L331,526 L332,526 L332,525 L333,525 L333,523 L334,523 L334,522 L336,522 L336,520 L337,520 L337,518 L338,518 L338,517 L339,517 L339,516 L340,516 L340,515 L341,515 L341,514 L342,514 L342,512 L343,512 L343,510 L344,510 L344,508 L345,508 L345,507 L346,507 L346,506 L347,506 L347,504 L348,504 L348,502 L349,502 L349,500 L350,500 L350,498 L352,498 L352,496 L356,496 L356,493 L358,493 L358,490 L359,490 L359,484 L361,484 L361,475 L362,475 L362,473 L363,473 L363,472 L364,472 L364,469 L366,469 L366,416 L368,416 L368,415 L369,415 L369,414 L371,414 L371,448 L372,448 L372,560 L371,560 L371,563 L372,563 L372,565 L373,565 L373,566 L376,566 L376,567 L384,567 L384,566 L444,566 L444,565 L445,565 L445,564 L446,564 L446,406 L576,406 L576,408 L579,408 L579,562 L580,562 L580,564 L581,564 L581,565 L585,565 L585,566 L651,566 L651,565 L652,565 L652,564 L654,564 L654,562 L652,562 L652,334 L653,334 L653,333 L696,333 L696,334 L716,334 L716,335 L720,335 L720,336 L736,336 L736,337 L740,337 L740,338 L752,338 L752,340 L756,340 L756,341 L768,341 L768,343 L774,343 L774,344 L776,344 L776,343 L787,343 L787,344 L792,344 L792,345 L809,345 L809,346 L812,346 L812,347 L824,347 L824,345 L816,345 L816,342 L813,342 L813,341 L803,341 L803,340 L802,340 L802,339 L792,339 L792,338 L788,338 L788,336 L783,336 L783,335 L782,335 L782,334 L781,334 L781,333 L780,333 L780,332 L777,332 L777,330 L776,330 L776,333 L764,333 L764,332 L756,332 L756,331 L748,331 L748,329 L747,329 L747,328 L736,328 L736,327 L729,327 L729,326 L723,326 L723,325 L704,325 L704,324 L700,324 L700,323 L693,323 L693,322 L684,322 L684,321 L683,321 L683,320 L678,320 L678,319 L656,319 L656,318 L654,318 L654,316 L656,316 L656,314 L654,314 L654,311 L653,311 L653,309 L652,309 L652,178 L650,178 L650,176 L645,176 L645,177 L581,177 L581,178 L580,178 L580,313 L581,313 L581,316 L582,316 L582,318 L584,318 L584,319 L560,319 L560,320 L536,320 L536,321 L529,321 L529,322 L509,322 L509,321 L510,321 L510,320 L505,320 L505,319 L503,319 L503,320 L496,320 L496,324 L495,324 L495,323 L491,323 L491,322 L488,322 L488,323 L480,323 L480,325 L479,325 L479,324 L474,324 L474,323 L473,323 L473,322 L470,322 L470,320 L466,320 L466,319 L465,319 L465,320 L464,320 L464,322 L461,322 L461,323 L460,323 L460,322 L459,322 L459,323 L449,323 L449,322 L447,322 L447,288 L446,288 L446,178 L445,178 L445,176 L444,176 L444,175 L372,175 L372,176 L371,176 L371,179 L372,179 L372,180 L373,180 L373,184 L372,184 L372,182 L370,182 L370,184 L371,184 L371,256 L368,256 L368,192 L367,192 L367,240 L364,240 L364,255 L363,255 L363,256 L360,256 L360,255 L359,255 L359,265 L360,265 L360,268 L358,268 L358,270 L356,270 L356,269 L357,269 L357,266 L356,266 L356,250 L355,250 L355,248 L354,248 L354,239 L353,239 L353,237 L351,237 L351,234 L350,234 L350,230 L351,230 L351,224 L349,224 L349,228 L348,228 L348,224 L347,224 L347,220 L348,220 L348,223 L349,223 L349,220 L351,220 L351,219 L350,219 L350,218 L352,218 L352,217 L348,217 L348,218 L347,218 L347,216 L349,216 L349,215 L348,215 L348,213 L347,213 L347,214 L344,214 L344,212 L341,212 L341,209 L340,209 L340,207 L339,207 L339,205 L336,205 L336,201 L335,201 L335,197 L332,197 L332,200 L331,200 L331,199 L330,199 L330,196 L328,196 L328,194 L327,194 L327,192 L320,192 L320,190 L319,190 L319,189 L318,189 L318,188 L317,188 L317,187 L316,187 L316,186 L315,186 L315,185 L314,185 L314,184 L312,184 L312,182 L309,182 L309,181 L308,181 L308,180 L306,180 L306,179 L304,179 L304,177 L302,177 L302,176 L299,176 L299,175 L298,175 L298,174 L296,174 L296,173 L294,173 L294,172 L291,172 L291,171 L290,171 L290,170 L286,170 L286,169 L285,169 L285,168 L284,168 L284,166 L280,166 L280,165 L276,165 L276,164 L272,164 L272,163 L270,163 L270,162 L264,162 L264,161 L262,161 L262,160 Z M118,438 L118,448 L119,448 L119,452 L120,452 L120,453 L121,453 L121,462 L122,462 L122,468 L123,468 L123,471 L124,471 L124,474 L125,474 L125,476 L126,476 L126,478 L127,478 L127,480 L128,480 L128,482 L129,482 L129,486 L130,486 L130,488 L131,488 L131,491 L132,491 L132,492 L134,492 L134,494 L135,494 L135,496 L136,496 L136,497 L137,497 L137,498 L138,498 L138,502 L141,502 L141,501 L143,501 L143,500 L144,500 L144,497 L145,497 L145,496 L146,496 L146,495 L147,495 L147,494 L148,494 L148,493 L149,493 L149,492 L150,492 L150,490 L151,490 L151,489 L152,489 L152,488 L155,488 L155,486 L156,486 L156,484 L157,484 L157,483 L158,483 L158,482 L159,482 L159,481 L160,481 L160,478 L162,478 L162,477 L163,477 L163,475 L165,475 L165,474 L166,474 L166,472 L167,472 L167,471 L168,471 L168,469 L170,469 L170,468 L171,468 L171,467 L172,467 L172,465 L173,465 L173,464 L174,464 L174,463 L178,463 L178,461 L179,461 L179,459 L180,459 L180,458 L181,458 L181,457 L183,457 L183,455 L184,455 L184,454 L185,454 L185,453 L186,453 L186,452 L187,452 L187,451 L189,451 L189,450 L190,450 L190,448 L191,448 L191,440 L190,440 L190,439 L189,439 L189,438 Z " fill="#FEE6CE" transform="translate(0,0)"/>
<path d="M0,0 L89,0 L89,1 L120,1 L120,2 L135,2 L135,3 L140,3 L140,4 L148,4 L148,5 L153,5 L153,6 L156,6 L156,7 L164,7 L164,8 L95,8 L95,9 L94,9 L94,240 L92,240 L92,241 L26,241 L26,238 L25,238 L25,83 L24,83 L24,82 L-110,82 L-110,83 L-111,83 L-111,84 L-112,84 L-112,238 L-114,238 L-114,239 L-115,239 L-115,240 L-180,240 L-180,88 L-182,88 L-182,87 L-186,87 L-186,88 L-187,88 L-187,89 L-188,89 L-188,90 L-192,90 L-192,91 L-193,91 L-193,92 L-195,92 L-195,93 L-196,93 L-196,100 L-195,100 L-195,102 L-194,102 L-194,142 L-195,142 L-195,148 L-196,148 L-196,150 L-197,150 L-197,154 L-198,154 L-198,158 L-199,158 L-199,161 L-200,161 L-200,162 L-201,162 L-201,166 L-202,166 L-202,170 L-203,170 L-203,171 L-204,171 L-204,176 L-206,176 L-206,178 L-207,178 L-207,180 L-208,180 L-208,182 L-209,182 L-209,184 L-210,184 L-210,185 L-211,185 L-211,186 L-212,186 L-212,188 L-213,188 L-213,190 L-214,190 L-214,192 L-215,192 L-215,193 L-216,193 L-216,194 L-217,194 L-217,195 L-218,195 L-218,196 L-219,196 L-219,198 L-220,198 L-220,200 L-222,200 L-222,201 L-223,201 L-223,203 L-224,203 L-224,204 L-225,204 L-225,205 L-226,205 L-226,207 L-227,207 L-227,208 L-228,208 L-228,209 L-230,209 L-230,210 L-231,210 L-231,211 L-232,211 L-232,212 L-233,212 L-233,213 L-234,213 L-234,214 L-238,214 L-238,215 L-239,215 L-239,216 L-240,216 L-240,217 L-241,217 L-241,219 L-242,219 L-242,220 L-244,220 L-244,221 L-246,221 L-246,222 L-247,222 L-247,223 L-248,223 L-248,224 L-250,224 L-250,225 L-251,225 L-251,226 L-254,226 L-254,227 L-256,227 L-256,228 L-260,228 L-260,230 L-262,230 L-262,231 L-264,231 L-264,232 L-268,232 L-268,233 L-271,233 L-271,234 L-274,234 L-274,235 L-276,235 L-276,237 L-281,237 L-281,238 L-287,238 L-287,239 L-292,239 L-292,240 L-300,240 L-300,241 L-332,241 L-332,240 L-346,240 L-346,239 L-351,239 L-351,240 L-352,240 L-352,241 L-449,241 L-449,238 L-448,238 L-448,236 L-447,236 L-447,234 L-446,234 L-446,233 L-445,233 L-445,232 L-444,232 L-444,227 L-442,227 L-442,224 L-441,224 L-441,223 L-440,223 L-440,222 L-438,222 L-438,219 L-437,219 L-437,218 L-435,218 L-435,215 L-434,215 L-434,214 L-432,214 L-432,212 L-431,212 L-431,211 L-430,211 L-430,209 L-429,209 L-429,208 L-428,208 L-428,207 L-427,207 L-427,206 L-426,206 L-426,204 L-424,204 L-424,203 L-423,203 L-423,201 L-422,201 L-422,200 L-421,200 L-421,198 L-420,198 L-420,196 L-417,196 L-417,195 L-416,195 L-416,194 L-415,194 L-415,193 L-414,193 L-414,192 L-413,192 L-413,190 L-412,190 L-412,186 L-410,186 L-410,183 L-409,183 L-409,182 L-408,182 L-408,180 L-407,180 L-407,179 L-406,179 L-406,177 L-404,177 L-404,175 L-402,175 L-402,174 L-399,174 L-399,173 L-398,173 L-398,170 L-395,170 L-395,169 L-394,169 L-394,168 L-393,168 L-393,167 L-392,167 L-392,165 L-390,165 L-390,164 L-389,164 L-389,161 L-388,161 L-388,160 L-386,160 L-386,158 L-385,158 L-385,157 L-384,157 L-384,156 L-383,156 L-383,155 L-382,155 L-382,154 L-381,154 L-381,153 L-380,153 L-380,151 L-379,151 L-379,150 L-377,150 L-377,148 L-376,148 L-376,147 L-375,147 L-375,146 L-373,146 L-373,145 L-372,145 L-372,144 L-370,144 L-370,142 L-368,142 L-368,139 L-367,139 L-367,138 L-364,138 L-364,136 L-362,136 L-362,134 L-359,134 L-359,133 L-358,133 L-358,132 L-356,132 L-356,129 L-354,129 L-354,128 L-353,128 L-353,127 L-352,127 L-352,126 L-351,126 L-351,125 L-350,125 L-350,124 L-348,124 L-348,122 L-346,122 L-346,121 L-345,121 L-345,120 L-344,120 L-344,119 L-342,119 L-342,118 L-340,118 L-340,116 L-338,116 L-338,115 L-337,115 L-337,114 L-334,114 L-334,113 L-333,113 L-333,112 L-332,112 L-332,110 L-329,110 L-329,109 L-328,109 L-328,108 L-327,108 L-327,107 L-326,107 L-326,105 L-323,105 L-323,104 L-322,104 L-322,103 L-321,103 L-321,102 L-319,102 L-319,101 L-318,101 L-318,100 L-314,100 L-314,99 L-313,99 L-313,98 L-312,98 L-312,97 L-311,97 L-311,96 L-308,96 L-308,92 L-306,92 L-306,91 L-304,91 L-304,90 L-303,90 L-303,89 L-302,89 L-302,88 L-297,88 L-297,87 L-296,87 L-296,86 L-295,86 L-295,85 L-294,85 L-294,84 L-291,84 L-291,83 L-289,83 L-289,82 L-288,82 L-288,81 L-286,81 L-286,80 L-284,80 L-284,79 L-282,79 L-282,77 L-281,77 L-281,76 L-279,76 L-279,75 L-278,75 L-278,74 L-273,74 L-273,73 L-272,73 L-272,72 L-271,72 L-271,71 L-266,71 L-266,70 L-265,70 L-265,69 L-264,69 L-264,68 L-262,68 L-262,67 L-258,67 L-258,66 L-256,66 L-256,64 L-254,64 L-254,63 L-253,63 L-253,62 L-250,62 L-250,61 L-249,61 L-249,60 L-246,60 L-246,59 L-244,59 L-244,57 L-240,57 L-240,56 L-236,56 L-236,55 L-234,55 L-234,54 L-231,54 L-231,53 L-230,53 L-230,52 L-228,52 L-228,50 L-225,50 L-225,49 L-223,49 L-223,48 L-220,48 L-220,47 L-218,47 L-218,46 L-214,46 L-214,45 L-212,45 L-212,44 L-210,44 L-210,43 L-209,43 L-209,42 L-207,42 L-207,41 L-204,41 L-204,40 L-196,40 L-196,38 L-191,38 L-191,37 L-188,37 L-188,35 L-184,35 L-184,34 L-180,34 L-180,33 L-178,33 L-178,32 L-172,32 L-172,31 L-170,31 L-170,30 L-168,30 L-168,29 L-164,29 L-164,28 L-160,28 L-160,27 L-159,27 L-159,26 L-153,26 L-153,24 L-148,24 L-148,23 L-144,23 L-144,22 L-140,22 L-140,21 L-137,21 L-137,20 L-129,20 L-129,19 L-128,19 L-128,18 L-124,18 L-124,17 L-121,17 L-121,16 L-114,16 L-114,15 L-110,15 L-110,14 L-103,14 L-103,13 L-100,13 L-100,12 L-92,12 L-92,11 L-88,11 L-88,10 L-84,10 L-84,9 L-68,9 L-68,7 L-60,7 L-60,6 L-47,6 L-47,5 L-44,5 L-44,4 L-36,4 L-36,3 L-31,3 L-31,2 L-12,2 L-12,1 L0,1 Z M76,9 L76,10 L68,10 L68,11 L41,11 L41,12 L33,12 L33,13 L31,13 L31,14 L25,14 L25,17 L24,17 L24,19 L17,19 L17,18 L5,18 L5,19 L2,19 L2,20 L-15,20 L-15,21 L-16,21 L-16,22 L-23,22 L-23,23 L-24,23 L-24,24 L-25,24 L-25,25 L-32,25 L-32,26 L-36,26 L-36,28 L-39,28 L-39,29 L-47,29 L-47,30 L-48,30 L-48,31 L-56,31 L-56,32 L-57,32 L-57,33 L-62,33 L-62,34 L-68,34 L-68,36 L-72,36 L-72,37 L-78,37 L-78,38 L-82,38 L-82,39 L-85,39 L-85,40 L-87,40 L-87,41 L-88,41 L-88,42 L-92,42 L-92,44 L-95,44 L-95,45 L-100,45 L-100,48 L-103,48 L-103,49 L-105,49 L-105,51 L-108,51 L-108,52 L-111,52 L-111,53 L-112,53 L-112,54 L-116,54 L-116,56 L-119,56 L-119,57 L-121,57 L-121,58 L-126,58 L-126,60 L-127,60 L-127,61 L-128,61 L-128,62 L-131,62 L-131,63 L-133,63 L-133,64 L-134,64 L-134,65 L-135,65 L-135,66 L-137,66 L-137,67 L-138,67 L-138,68 L-134,68 L-134,69 L-135,69 L-135,70 L-141,70 L-141,72 L-142,72 L-142,70 L-146,70 L-146,71 L-145,71 L-145,74 L-144,74 L-144,75 L-141,75 L-141,76 L-140,76 L-140,77 L-138,77 L-138,76 L-137,76 L-137,75 L-132,75 L-132,74 L-124,74 L-124,73 L-115,73 L-115,72 L-114,72 L-114,73 L-113,73 L-113,72 L-112,72 L-112,73 L-111,73 L-111,72 L-110,72 L-110,73 L-109,73 L-109,72 L-108,72 L-108,73 L-107,73 L-107,72 L-106,72 L-106,73 L-105,73 L-105,72 L-104,72 L-104,73 L-103,73 L-103,72 L-102,72 L-102,73 L-101,73 L-101,72 L-100,72 L-100,73 L-99,73 L-99,72 L-98,72 L-98,73 L-97,73 L-97,72 L-96,72 L-96,73 L-95,73 L-95,72 L-94,72 L-94,73 L-93,73 L-93,72 L-92,72 L-92,73 L-91,73 L-91,72 L-90,72 L-90,73 L-89,73 L-89,72 L-88,72 L-88,73 L-87,73 L-87,72 L-86,72 L-86,73 L-85,73 L-85,72 L-84,72 L-84,73 L-83,73 L-83,72 L-82,72 L-82,73 L-81,73 L-81,72 L-80,72 L-80,73 L-79,73 L-79,72 L-78,72 L-78,73 L-77,73 L-77,72 L-76,72 L-76,73 L-75,73 L-75,72 L-74,72 L-74,73 L-73,73 L-73,72 L-72,72 L-72,73 L-71,73 L-71,72 L-70,72 L-70,73 L-69,73 L-69,72 L-68,72 L-68,73 L-67,73 L-67,72 L-66,72 L-66,73 L-65,73 L-65,72 L-64,72 L-64,73 L-63,73 L-63,72 L-62,72 L-62,73 L-61,73 L-61,72 L-60,72 L-60,73 L-59,73 L-59,72 L-58,72 L-58,73 L-57,73 L-57,72 L-56,72 L-56,73 L-55,73 L-55,72 L-54,72 L-54,73 L-53,73 L-53,72 L-52,72 L-52,73 L-51,73 L-51,72 L-50,72 L-50,73 L-49,73 L-49,72 L-48,72 L-48,73 L-47,73 L-47,72 L-44,72 L-44,73 L-3,73 L-3,72 L-2,72 L-2,71 L-1,71 L-1,69 L3,69 L3,68 L19,68 L19,69 L20,69 L20,70 L36,70 L36,67 L60,67 L60,68 L61,68 L61,67 L62,67 L62,68 L63,68 L63,67 L64,67 L64,68 L65,68 L65,67 L66,67 L66,68 L67,68 L67,67 L68,67 L68,66 L83,66 L83,65 L84,65 L84,62 L88,62 L88,68 L89,68 L89,71 L90,71 L90,70 L91,70 L91,65 L92,65 L92,62 L93,62 L93,11 L92,11 L92,9 Z M-281,142 L-281,144 L-282,144 L-282,145 L-281,145 L-281,146 L-277,146 L-277,149 L-278,149 L-278,150 L-279,150 L-279,151 L-280,151 L-280,152 L-282,152 L-282,154 L-283,154 L-283,155 L-284,155 L-284,158 L-288,158 L-288,159 L-289,159 L-289,160 L-290,160 L-290,161 L-291,161 L-291,162 L-292,162 L-292,164 L-294,164 L-294,166 L-295,166 L-295,172 L-288,172 L-288,171 L-287,171 L-287,170 L-284,170 L-284,169 L-282,169 L-282,168 L-281,168 L-281,167 L-280,167 L-280,166 L-278,166 L-278,164 L-276,164 L-276,163 L-275,163 L-275,162 L-272,162 L-272,161 L-271,161 L-271,159 L-270,159 L-270,156 L-269,156 L-269,155 L-268,155 L-268,153 L-266,153 L-266,152 L-265,152 L-265,150 L-264,150 L-264,146 L-263,146 L-263,143 L-264,143 L-264,142 L-267,142 L-267,144 L-272,144 L-272,143 L-273,143 L-273,142 Z " fill="#0F83AE" transform="translate(556,322)"/>
<path d="M0,0 L37,0 L37,1 L43,1 L43,3 L54,3 L54,4 L55,4 L55,5 L61,5 L61,6 L62,6 L62,7 L66,7 L66,8 L67,8 L67,9 L70,9 L70,10 L72,10 L72,11 L74,11 L74,12 L75,12 L75,13 L78,13 L78,14 L80,14 L80,16 L82,16 L82,17 L84,17 L84,18 L85,18 L85,19 L88,19 L88,21 L90,21 L90,22 L91,22 L91,23 L92,23 L92,24 L93,24 L93,25 L94,25 L94,26 L95,26 L95,27 L96,27 L96,29 L98,29 L98,31 L99,31 L99,33 L100,33 L100,34 L101,34 L101,35 L102,35 L102,37 L105,37 L105,39 L108,39 L108,40 L109,40 L109,43 L110,43 L110,45 L112,45 L112,46 L113,46 L113,47 L114,47 L114,50 L115,50 L115,51 L116,51 L116,53 L117,53 L117,56 L118,56 L118,57 L119,57 L119,65 L121,65 L121,68 L122,68 L122,71 L123,71 L123,73 L124,73 L124,80 L125,80 L125,81 L127,81 L127,93 L128,93 L128,103 L59,103 L59,97 L58,97 L58,88 L57,88 L57,87 L56,87 L56,83 L55,83 L55,82 L54,82 L54,79 L53,79 L53,77 L52,77 L52,76 L51,76 L51,75 L50,75 L50,73 L49,73 L49,72 L46,72 L46,71 L45,71 L45,70 L44,70 L44,69 L41,69 L41,68 L40,68 L40,66 L39,66 L39,65 L37,65 L37,64 L36,64 L36,63 L34,63 L34,62 L33,62 L33,61 L30,61 L30,60 L4,60 L4,62 L-4,62 L-4,64 L-8,64 L-8,63 L-10,63 L-10,66 L-12,66 L-12,67 L-16,67 L-16,69 L-18,69 L-18,72 L-19,72 L-19,73 L-20,73 L-20,74 L-21,74 L-21,75 L-22,75 L-22,76 L-24,76 L-24,85 L-25,85 L-25,86 L-26,86 L-26,87 L-27,87 L-27,109 L-25,109 L-25,112 L-24,112 L-24,111 L-23,111 L-23,113 L-24,113 L-24,117 L-25,117 L-25,116 L-26,116 L-26,119 L-25,119 L-25,122 L-24,122 L-24,123 L-20,123 L-20,125 L-19,125 L-19,129 L-16,129 L-16,130 L-15,130 L-15,132 L-11,132 L-11,133 L-8,133 L-8,134 L-6,134 L-6,135 L-5,135 L-5,136 L-4,136 L-4,137 L-3,137 L-3,138 L0,138 L0,139 L2,139 L2,141 L5,141 L5,143 L10,143 L10,144 L12,144 L12,145 L13,145 L13,146 L14,146 L14,147 L19,147 L19,148 L23,148 L23,149 L24,149 L24,150 L26,150 L26,151 L28,151 L28,152 L36,152 L36,153 L37,153 L37,154 L38,154 L38,155 L40,155 L40,156 L42,156 L42,157 L45,157 L45,159 L52,159 L52,160 L53,160 L53,162 L54,162 L54,163 L53,163 L53,164 L62,164 L62,166 L72,166 L72,167 L74,167 L74,168 L76,168 L76,169 L77,169 L77,170 L78,170 L78,171 L82,171 L82,172 L84,172 L84,173 L85,173 L85,174 L87,174 L87,175 L88,175 L88,177 L90,177 L90,179 L94,179 L94,181 L95,181 L95,182 L96,182 L96,183 L98,183 L98,184 L100,184 L100,185 L102,185 L102,186 L103,186 L103,187 L104,187 L104,189 L105,189 L105,190 L110,190 L110,192 L111,192 L111,193 L112,193 L112,196 L110,196 L110,197 L109,197 L109,198 L108,198 L108,199 L104,199 L104,200 L102,200 L102,201 L100,201 L100,202 L96,202 L96,203 L94,203 L94,204 L92,204 L92,205 L90,205 L90,206 L88,206 L88,207 L86,207 L86,208 L85,208 L85,209 L84,209 L84,210 L80,210 L80,211 L79,211 L79,212 L78,212 L78,213 L72,213 L72,215 L70,215 L70,216 L64,216 L64,218 L62,218 L62,219 L59,219 L59,220 L55,220 L55,221 L54,221 L54,223 L53,223 L53,224 L47,224 L47,225 L46,225 L46,227 L44,227 L44,229 L38,229 L38,227 L32,227 L32,226 L30,226 L30,225 L28,225 L28,224 L26,224 L26,223 L24,223 L24,222 L22,222 L22,221 L18,221 L18,220 L16,220 L16,219 L14,219 L14,218 L12,218 L12,217 L10,217 L10,216 L4,216 L4,215 L0,215 L0,214 L-1,214 L-1,213 L-3,213 L-3,212 L-6,212 L-6,211 L-12,211 L-12,210 L-14,210 L-14,209 L-16,209 L-16,207 L-18,207 L-18,206 L-20,206 L-20,205 L-24,205 L-24,204 L-27,204 L-27,203 L-28,203 L-28,202 L-30,202 L-30,201 L-32,201 L-32,200 L-34,200 L-34,199 L-38,199 L-38,198 L-39,198 L-39,197 L-40,197 L-40,196 L-43,196 L-43,194 L-44,194 L-44,193 L-46,193 L-46,192 L-48,192 L-48,191 L-49,191 L-49,190 L-50,190 L-50,188 L-52,188 L-52,187 L-54,187 L-54,185 L-58,185 L-58,184 L-59,184 L-59,183 L-60,183 L-60,182 L-61,182 L-61,181 L-62,181 L-62,179 L-64,179 L-64,178 L-66,178 L-66,177 L-67,177 L-67,176 L-68,176 L-68,173 L-70,173 L-70,171 L-72,171 L-72,170 L-73,170 L-73,169 L-74,169 L-74,166 L-75,166 L-75,165 L-77,165 L-77,164 L-78,164 L-78,161 L-79,161 L-79,160 L-80,160 L-80,154 L-81,154 L-81,153 L-82,153 L-82,148 L-83,148 L-83,146 L-84,146 L-84,144 L-85,144 L-85,141 L-86,141 L-86,139 L-87,139 L-87,138 L-88,138 L-88,136 L-89,136 L-89,129 L-90,129 L-90,125 L-91,125 L-91,85 L-89,85 L-89,75 L-88,75 L-88,73 L-87,73 L-87,71 L-86,71 L-86,69 L-85,69 L-85,67 L-84,67 L-84,63 L-82,63 L-82,58 L-80,58 L-80,54 L-79,54 L-79,53 L-77,53 L-77,50 L-76,50 L-76,49 L-75,49 L-75,45 L-74,45 L-74,44 L-73,44 L-73,43 L-72,43 L-72,38 L-71,38 L-71,37 L-70,37 L-70,35 L-68,35 L-68,34 L-66,34 L-66,33 L-65,33 L-65,32 L-64,32 L-64,30 L-63,30 L-63,27 L-61,27 L-61,26 L-60,26 L-60,25 L-59,25 L-59,24 L-58,24 L-58,23 L-55,23 L-55,22 L-54,22 L-54,21 L-53,21 L-53,20 L-52,20 L-52,19 L-50,19 L-50,18 L-48,18 L-48,16 L-44,16 L-44,15 L-43,15 L-43,14 L-42,14 L-42,13 L-39,13 L-39,12 L-38,12 L-38,11 L-36,11 L-36,10 L-35,10 L-35,9 L-34,9 L-34,8 L-26,8 L-26,7 L-24,7 L-24,6 L-22,6 L-22,5 L-19,5 L-19,4 L-18,4 L-18,3 L-8,3 L-8,1 L0,1 Z " fill="#1E556A" transform="translate(224,163)"/>
<path d="M0,0 L2,0 L2,2 L3,2 L3,1 L4,1 L4,166 L10,166 L10,164 L11,164 L11,163 L14,163 L14,162 L18,162 L18,161 L24,161 L24,160 L26,160 L26,159 L28,159 L28,158 L34,158 L34,157 L36,157 L36,156 L43,156 L43,155 L46,155 L46,154 L49,154 L49,153 L50,153 L50,152 L62,152 L62,150 L66,150 L66,149 L72,149 L72,148 L73,148 L73,147 L74,147 L74,146 L75,146 L75,106 L77,106 L77,140 L79,140 L79,141 L89,141 L89,140 L90,140 L90,141 L91,141 L91,140 L94,140 L94,138 L95,138 L95,137 L96,137 L96,138 L100,138 L100,140 L103,140 L103,141 L104,141 L104,142 L109,142 L109,143 L110,143 L110,141 L118,141 L118,140 L121,140 L121,141 L125,141 L125,142 L126,142 L126,138 L133,138 L133,137 L135,137 L135,138 L140,138 L140,139 L139,139 L139,140 L159,140 L159,139 L166,139 L166,138 L190,138 L190,137 L214,137 L214,136 L212,136 L212,134 L211,134 L211,132 L281,132 L281,127 L283,127 L283,129 L284,129 L284,132 L286,132 L286,134 L284,134 L284,136 L286,136 L286,137 L308,137 L308,138 L313,138 L313,139 L314,139 L314,140 L323,140 L323,141 L330,141 L330,142 L334,142 L334,143 L353,143 L353,144 L359,144 L359,145 L366,145 L366,146 L377,146 L377,147 L378,147 L378,149 L386,149 L386,150 L394,150 L394,151 L406,151 L406,148 L407,148 L407,150 L410,150 L410,151 L411,151 L411,152 L412,152 L412,153 L413,153 L413,154 L418,154 L418,156 L422,156 L422,157 L432,157 L432,158 L433,158 L433,159 L443,159 L443,160 L446,160 L446,163 L454,163 L454,165 L442,165 L442,164 L439,164 L439,163 L422,163 L422,162 L417,162 L417,161 L406,161 L406,162 L404,162 L404,161 L398,161 L398,159 L386,159 L386,158 L382,158 L382,156 L370,156 L370,155 L366,155 L366,154 L350,154 L350,153 L346,153 L346,152 L326,152 L326,151 L283,151 L283,152 L282,152 L282,380 L284,380 L284,382 L282,382 L282,383 L281,383 L281,384 L215,384 L215,383 L211,383 L211,382 L210,382 L210,380 L209,380 L209,226 L206,226 L206,224 L76,224 L76,223 L77,223 L77,222 L210,222 L210,223 L211,223 L211,378 L212,378 L212,381 L278,381 L278,380 L280,380 L280,149 L344,149 L344,150 L353,150 L353,151 L363,151 L363,152 L378,152 L378,150 L374,150 L374,149 L366,149 L366,148 L360,148 L360,147 L354,147 L354,146 L339,146 L339,145 L334,145 L334,144 L326,144 L326,143 L321,143 L321,142 L306,142 L306,141 L275,141 L275,140 L186,140 L186,141 L174,141 L174,142 L155,142 L155,143 L150,143 L150,144 L142,144 L142,145 L139,145 L139,146 L126,146 L126,147 L118,147 L118,149 L102,149 L102,150 L98,150 L98,151 L94,151 L94,152 L86,152 L86,153 L83,153 L83,154 L76,154 L76,155 L72,155 L72,156 L65,156 L65,157 L62,157 L62,158 L58,158 L58,159 L57,159 L57,160 L49,160 L49,161 L46,161 L46,162 L42,162 L42,163 L38,163 L38,164 L33,164 L33,166 L27,166 L27,167 L26,167 L26,168 L22,168 L22,169 L18,169 L18,170 L16,170 L16,171 L14,171 L14,172 L8,172 L8,173 L6,173 L6,174 L2,174 L2,175 L-2,175 L-2,177 L-5,177 L-5,178 L-10,178 L-10,180 L-18,180 L-18,181 L-21,181 L-21,182 L-23,182 L-23,183 L-24,183 L-24,184 L-26,184 L-26,185 L-28,185 L-28,186 L-32,186 L-32,187 L-34,187 L-34,188 L-37,188 L-37,189 L-39,189 L-39,190 L-42,190 L-42,192 L-44,192 L-44,193 L-45,193 L-45,194 L-48,194 L-48,195 L-50,195 L-50,196 L-54,196 L-54,197 L-58,197 L-58,199 L-60,199 L-60,200 L-63,200 L-63,201 L-64,201 L-64,202 L-67,202 L-67,203 L-68,203 L-68,204 L-70,204 L-70,206 L-72,206 L-72,207 L-76,207 L-76,208 L-78,208 L-78,209 L-79,209 L-79,210 L-80,210 L-80,211 L-85,211 L-85,212 L-86,212 L-86,213 L-87,213 L-87,214 L-92,214 L-92,215 L-93,215 L-93,216 L-95,216 L-95,217 L-96,217 L-96,219 L-98,219 L-98,220 L-100,220 L-100,221 L-102,221 L-102,222 L-103,222 L-103,223 L-105,223 L-105,224 L-108,224 L-108,225 L-109,225 L-109,226 L-110,226 L-110,227 L-111,227 L-111,228 L-116,228 L-116,229 L-117,229 L-117,230 L-118,230 L-118,231 L-120,231 L-120,232 L-122,232 L-122,231 L-121,231 L-121,229 L-119,229 L-119,228 L-118,228 L-118,227 L-117,227 L-117,226 L-114,226 L-114,220 L-117,220 L-117,221 L-125,221 L-125,220 L-126,220 L-126,219 L-127,219 L-127,216 L-121,216 L-121,215 L-123,215 L-123,214 L-130,214 L-130,211 L-131,211 L-131,209 L-129,209 L-129,208 L-130,208 L-130,206 L-128,206 L-128,204 L-133,204 L-133,203 L-138,203 L-138,200 L-139,200 L-139,199 L-140,199 L-140,198 L-141,198 L-141,197 L-136,197 L-136,198 L-134,198 L-134,199 L-132,199 L-132,200 L-130,200 L-130,201 L-128,201 L-128,202 L-124,202 L-124,203 L-122,203 L-122,204 L-120,204 L-120,205 L-118,205 L-118,206 L-116,206 L-116,207 L-114,207 L-114,208 L-108,208 L-108,210 L-102,210 L-102,208 L-100,208 L-100,206 L-99,206 L-99,205 L-93,205 L-93,204 L-92,204 L-92,202 L-91,202 L-91,201 L-87,201 L-87,200 L-84,200 L-84,199 L-82,199 L-82,197 L-76,197 L-76,196 L-74,196 L-74,194 L-68,194 L-68,193 L-67,193 L-67,192 L-66,192 L-66,191 L-62,191 L-62,190 L-61,190 L-61,189 L-60,189 L-60,188 L-58,188 L-58,187 L-56,187 L-56,186 L-54,186 L-54,185 L-52,185 L-52,184 L-50,184 L-50,183 L-46,183 L-46,182 L-44,182 L-44,181 L-42,181 L-42,180 L-38,180 L-38,179 L-37,179 L-37,178 L-36,178 L-36,177 L-34,177 L-34,174 L-35,174 L-35,173 L-36,173 L-36,171 L-41,171 L-41,170 L-42,170 L-42,168 L-43,168 L-43,167 L-44,167 L-44,166 L-46,166 L-46,165 L-48,165 L-48,164 L-50,164 L-50,163 L-51,163 L-51,162 L-52,162 L-52,160 L-56,160 L-56,158 L-58,158 L-58,156 L-59,156 L-59,155 L-61,155 L-61,154 L-62,154 L-62,153 L-64,153 L-64,152 L-68,152 L-68,151 L-69,151 L-69,150 L-70,150 L-70,149 L-72,149 L-72,148 L-74,148 L-74,147 L-77,147 L-77,146 L-80,146 L-80,144 L-82,144 L-82,143 L-83,143 L-83,142 L-86,142 L-86,140 L-92,140 L-92,139 L-94,139 L-94,138 L-100,138 L-100,137 L-101,137 L-101,136 L-104,136 L-104,135 L-107,135 L-107,134 L-108,134 L-108,133 L-109,133 L-109,132 L-114,132 L-114,131 L-116,131 L-116,130 L-120,130 L-120,129 L-122,129 L-122,128 L-124,128 L-124,127 L-127,127 L-127,126 L-130,126 L-130,125 L-132,125 L-132,124 L-134,124 L-134,123 L-136,123 L-136,122 L-140,122 L-140,121 L-142,121 L-142,119 L-143,119 L-143,118 L-144,118 L-144,117 L-147,117 L-147,116 L-148,116 L-148,115 L-150,115 L-150,114 L-152,114 L-152,112 L-156,112 L-156,111 L-157,111 L-157,110 L-158,110 L-158,109 L-159,109 L-159,108 L-160,108 L-160,107 L-162,107 L-162,105 L-163,105 L-163,103 L-164,103 L-164,100 L-165,100 L-165,80 L-164,80 L-164,81 L-163,81 L-163,77 L-162,77 L-162,76 L-161,76 L-161,69 L-162,69 L-162,68 L-163,68 L-163,63 L-156,63 L-156,62 L-155,62 L-155,61 L-159,61 L-159,59 L-158,59 L-158,57 L-156,57 L-156,56 L-155,56 L-155,58 L-154,58 L-154,57 L-153,57 L-153,56 L-151,56 L-151,55 L-146,55 L-146,57 L-148,57 L-148,58 L-145,58 L-145,56 L-138,56 L-138,57 L-137,57 L-137,58 L-130,58 L-130,55 L-131,55 L-131,54 L-142,54 L-142,53 L-141,53 L-141,52 L-140,52 L-140,51 L-144,51 L-144,50 L-149,50 L-149,49 L-146,49 L-146,48 L-138,48 L-138,46 L-134,46 L-134,45 L-129,45 L-129,47 L-122,47 L-122,46 L-121,46 L-121,50 L-118,50 L-118,48 L-113,48 L-113,49 L-108,49 L-108,50 L-107,50 L-107,52 L-104,52 L-104,54 L-105,54 L-105,55 L-102,55 L-102,56 L-100,56 L-100,58 L-98,58 L-98,59 L-97,59 L-97,60 L-96,60 L-96,62 L-95,62 L-95,64 L-94,64 L-94,66 L-92,66 L-92,68 L-91,68 L-91,71 L-90,71 L-90,74 L-89,74 L-89,86 L-84,86 L-84,87 L-15,87 L-15,83 L-14,83 L-14,84 L-13,84 L-13,87 L-14,87 L-14,88 L-12,88 L-12,86 L-10,86 L-10,83 L-11,83 L-11,73 L-10,73 L-10,74 L-7,74 L-7,73 L-6,73 L-6,58 L-3,58 L-3,10 L-2,10 L-2,74 L1,74 L1,2 L0,2 Z " fill="#EEE0CC" transform="translate(370,182)"/>
<path d="M0,0 L65,0 L65,1 L66,1 L66,149 L64,149 L64,150 L63,150 L63,151 L50,151 L50,152 L48,152 L48,153 L46,153 L46,154 L38,154 L38,155 L33,155 L33,156 L30,156 L30,157 L26,157 L26,158 L25,158 L25,159 L22,159 L22,160 L17,160 L17,161 L16,161 L16,162 L14,162 L14,163 L5,163 L5,165 L-1,165 L-1,1 L0,1 Z " fill="#1D546A" transform="translate(378,179)"/>
<path d="M0,0 L16,0 L16,2 L17,2 L17,53 L16,53 L16,56 L15,56 L15,61 L14,61 L14,62 L13,62 L13,59 L12,59 L12,53 L8,53 L8,56 L7,56 L7,57 L-8,57 L-8,58 L-9,58 L-9,59 L-10,59 L-10,58 L-11,58 L-11,59 L-12,59 L-12,58 L-13,58 L-13,59 L-14,59 L-14,58 L-15,58 L-15,59 L-16,59 L-16,58 L-40,58 L-40,61 L-56,61 L-56,60 L-57,60 L-57,59 L-73,59 L-73,60 L-77,60 L-77,62 L-78,62 L-78,63 L-79,63 L-79,64 L-120,64 L-120,63 L-123,63 L-123,64 L-124,64 L-124,63 L-125,63 L-125,64 L-126,64 L-126,63 L-127,63 L-127,64 L-128,64 L-128,63 L-129,63 L-129,64 L-130,64 L-130,63 L-131,63 L-131,64 L-132,64 L-132,63 L-133,63 L-133,64 L-134,64 L-134,63 L-135,63 L-135,64 L-136,64 L-136,63 L-137,63 L-137,64 L-138,64 L-138,63 L-139,63 L-139,64 L-140,64 L-140,63 L-141,63 L-141,64 L-142,64 L-142,63 L-143,63 L-143,64 L-144,64 L-144,63 L-145,63 L-145,64 L-146,64 L-146,63 L-147,63 L-147,64 L-148,64 L-148,63 L-149,63 L-149,64 L-150,64 L-150,63 L-151,63 L-151,64 L-152,64 L-152,63 L-153,63 L-153,64 L-154,64 L-154,63 L-155,63 L-155,64 L-156,64 L-156,63 L-157,63 L-157,64 L-158,64 L-158,63 L-159,63 L-159,64 L-160,64 L-160,63 L-161,63 L-161,64 L-162,64 L-162,63 L-163,63 L-163,64 L-164,64 L-164,63 L-165,63 L-165,64 L-166,64 L-166,63 L-167,63 L-167,64 L-168,64 L-168,63 L-169,63 L-169,64 L-170,64 L-170,63 L-171,63 L-171,64 L-172,64 L-172,63 L-173,63 L-173,64 L-174,64 L-174,63 L-175,63 L-175,64 L-176,64 L-176,63 L-177,63 L-177,64 L-178,64 L-178,63 L-179,63 L-179,64 L-180,64 L-180,63 L-181,63 L-181,64 L-182,64 L-182,63 L-183,63 L-183,64 L-184,64 L-184,63 L-185,63 L-185,64 L-186,64 L-186,63 L-187,63 L-187,64 L-188,64 L-188,63 L-189,63 L-189,64 L-190,64 L-190,63 L-191,63 L-191,64 L-200,64 L-200,65 L-208,65 L-208,66 L-213,66 L-213,67 L-214,67 L-214,68 L-216,68 L-216,67 L-217,67 L-217,66 L-220,66 L-220,65 L-221,65 L-221,62 L-222,62 L-222,61 L-218,61 L-218,63 L-217,63 L-217,61 L-211,61 L-211,60 L-210,60 L-210,59 L-214,59 L-214,58 L-213,58 L-213,57 L-211,57 L-211,56 L-210,56 L-210,55 L-209,55 L-209,54 L-207,54 L-207,53 L-204,53 L-204,52 L-203,52 L-203,51 L-202,51 L-202,49 L-197,49 L-197,48 L-195,48 L-195,47 L-192,47 L-192,45 L-188,45 L-188,44 L-187,44 L-187,43 L-184,43 L-184,42 L-181,42 L-181,40 L-179,40 L-179,39 L-176,39 L-176,36 L-171,36 L-171,35 L-168,35 L-168,33 L-164,33 L-164,32 L-163,32 L-163,31 L-161,31 L-161,30 L-158,30 L-158,29 L-154,29 L-154,28 L-148,28 L-148,27 L-144,27 L-144,25 L-138,25 L-138,24 L-133,24 L-133,23 L-132,23 L-132,22 L-124,22 L-124,21 L-123,21 L-123,20 L-115,20 L-115,19 L-112,19 L-112,17 L-108,17 L-108,16 L-101,16 L-101,15 L-100,15 L-100,14 L-99,14 L-99,13 L-92,13 L-92,12 L-91,12 L-91,11 L-74,11 L-74,10 L-71,10 L-71,9 L-59,9 L-59,10 L-52,10 L-52,8 L-51,8 L-51,5 L-45,5 L-45,4 L-43,4 L-43,3 L-35,3 L-35,2 L-8,2 L-8,1 L0,1 Z " fill="#053E78" transform="translate(632,331)"/>
<path d="M0,0 L62,0 L62,1 L63,1 L63,132 L64,132 L64,133 L-2,133 L-2,4 L0,4 Z " fill="#1C546A" transform="translate(584,180)"/>
<path d="M0,0 L71,0 L71,1 L72,1 L72,2 L73,2 L73,10 L72,10 L72,12 L71,12 L71,13 L69,13 L69,14 L68,14 L68,15 L67,15 L67,16 L66,16 L66,17 L65,17 L65,19 L63,19 L63,20 L62,20 L62,21 L61,21 L61,23 L60,23 L60,25 L56,25 L56,26 L55,26 L55,27 L54,27 L54,29 L53,29 L53,30 L52,30 L52,31 L50,31 L50,33 L49,33 L49,34 L48,34 L48,36 L47,36 L47,37 L45,37 L45,39 L44,39 L44,40 L42,40 L42,43 L41,43 L41,44 L40,44 L40,45 L39,45 L39,46 L38,46 L38,48 L37,48 L37,50 L34,50 L34,51 L33,51 L33,52 L32,52 L32,54 L31,54 L31,55 L30,55 L30,56 L29,56 L29,57 L28,57 L28,58 L27,58 L27,59 L26,59 L26,62 L25,62 L25,63 L23,63 L23,64 L20,64 L20,60 L19,60 L19,59 L18,59 L18,58 L17,58 L17,56 L16,56 L16,54 L14,54 L14,53 L13,53 L13,50 L12,50 L12,48 L11,48 L11,44 L10,44 L10,42 L9,42 L9,40 L8,40 L8,38 L7,38 L7,36 L6,36 L6,33 L5,33 L5,30 L4,30 L4,24 L3,24 L3,15 L2,15 L2,14 L1,14 L1,10 L0,10 Z " fill="#29596B" transform="translate(118,438)"/>
<path d="M0,0 L4,0 L4,153 L5,153 L5,154 L6,154 L6,155 L74,155 L74,154 L75,154 L75,153 L76,153 L76,155 L75,155 L75,156 L74,156 L74,157 L14,157 L14,158 L6,158 L6,157 L3,157 L3,156 L2,156 L2,154 L1,154 L1,151 L2,151 L2,39 L1,39 L1,5 L-1,5 L-1,6 L-2,6 L-2,7 L-4,7 L-4,60 L-6,60 L-6,63 L-7,63 L-7,64 L-8,64 L-8,66 L-9,66 L-9,75 L-11,75 L-11,81 L-12,81 L-12,84 L-14,84 L-14,87 L-18,87 L-18,84 L-17,84 L-17,83 L-16,83 L-16,79 L-15,79 L-15,75 L-14,75 L-14,74 L-13,74 L-13,71 L-12,71 L-12,67 L-11,67 L-11,63 L-10,63 L-10,61 L-9,61 L-9,55 L-8,55 L-8,15 L-9,15 L-9,13 L-10,13 L-10,6 L-9,6 L-9,5 L-7,5 L-7,4 L-6,4 L-6,3 L-2,3 L-2,2 L-1,2 L-1,1 L0,1 Z " fill="#EEE0CC" transform="translate(370,409)"/>
<path d="M0,0 L3,0 L3,152 L2,152 L2,4 L1,4 L1,3 L-64,3 L-64,4 L-65,4 L-65,168 L-59,168 L-59,166 L-52,166 L-52,167 L-54,167 L-54,168 L-58,168 L-58,169 L-61,169 L-61,170 L-62,170 L-62,172 L-68,172 L-68,2 L-67,2 L-67,1 L0,1 Z " fill="#999998" transform="translate(442,176)"/>
<path d="M0,0 L2,0 L2,152 L67,152 L67,151 L68,151 L68,150 L70,150 L70,149 L71,149 L71,153 L70,153 L70,154 L2,154 L2,153 L1,153 L1,152 L0,152 Z " fill="#8BB9BB" transform="translate(374,410)"/>
<path d="M0,0 L4,0 L4,134 L0,134 L0,133 L2,133 L2,132 L1,132 L1,1 L0,1 Z " fill="#6E797D" transform="translate(646,180)"/>
<path d="M0,0 L26,0 L26,1 L29,1 L29,2 L30,2 L30,3 L32,3 L32,4 L33,4 L33,5 L31,5 L31,4 L28,4 L28,3 L25,3 L25,1 L2,1 L2,2 L1,2 L1,3 L0,3 L0,4 L-6,4 L-6,5 L-7,5 L-7,7 L-8,7 L-8,8 L-9,8 L-9,9 L-12,9 L-12,11 L-14,11 L-14,12 L-15,12 L-15,13 L-16,13 L-16,14 L-17,14 L-17,15 L-18,15 L-18,16 L-19,16 L-19,17 L-20,17 L-20,20 L-21,20 L-21,21 L-23,21 L-23,22 L-24,22 L-24,25 L-26,25 L-26,30 L-27,30 L-27,35 L-28,35 L-28,49 L-26,49 L-26,57 L-25,57 L-25,59 L-24,59 L-24,61 L-23,61 L-23,63 L-22,63 L-22,67 L-20,67 L-20,68 L-18,68 L-18,69 L-17,69 L-17,70 L-16,70 L-16,71 L-15,71 L-15,72 L-19,72 L-19,70 L-20,70 L-20,69 L-23,69 L-23,65 L-24,65 L-24,63 L-28,63 L-28,62 L-29,62 L-29,59 L-30,59 L-30,56 L-29,56 L-29,57 L-28,57 L-28,53 L-27,53 L-27,51 L-28,51 L-28,52 L-29,52 L-29,49 L-31,49 L-31,27 L-30,27 L-30,26 L-29,26 L-29,25 L-28,25 L-28,16 L-26,16 L-26,15 L-25,15 L-25,14 L-24,14 L-24,13 L-23,13 L-23,12 L-22,12 L-22,9 L-20,9 L-20,7 L-16,7 L-16,6 L-14,6 L-14,3 L-12,3 L-12,4 L-8,4 L-8,2 L0,2 Z " fill="#3F5F6D" transform="translate(228,223)"/>
<path d="M0,0 L23,0 L23,2 L26,2 L26,3 L29,3 L29,4 L33,4 L33,5 L34,5 L34,7 L35,7 L35,8 L37,8 L37,10 L38,10 L38,11 L39,11 L39,12 L41,12 L41,16 L40,16 L40,14 L38,14 L38,13 L35,13 L35,12 L36,12 L36,10 L33,10 L33,8 L32,8 L32,7 L27,7 L27,6 L22,6 L22,8 L19,8 L19,4 L18,4 L18,5 L11,5 L11,3 L6,3 L6,4 L2,4 L2,6 L-6,6 L-6,7 L-9,7 L-9,8 L-4,8 L-4,9 L0,9 L0,10 L-1,10 L-1,11 L-2,11 L-2,12 L9,12 L9,13 L10,13 L10,16 L3,16 L3,15 L2,15 L2,14 L-5,14 L-5,16 L-8,16 L-8,15 L-6,15 L-6,13 L-11,13 L-11,14 L-13,14 L-13,15 L-14,15 L-14,16 L-15,16 L-15,14 L-16,14 L-16,15 L-18,15 L-18,17 L-19,17 L-19,19 L-15,19 L-15,20 L-16,20 L-16,21 L-23,21 L-23,25 L-24,25 L-24,20 L-23,20 L-23,19 L-22,19 L-22,16 L-21,16 L-21,15 L-20,15 L-20,14 L-19,14 L-19,13 L-18,13 L-18,12 L-17,12 L-17,11 L-16,11 L-16,10 L-14,10 L-14,8 L-11,8 L-11,7 L-10,7 L-10,6 L-9,6 L-9,4 L-8,4 L-8,3 L-2,3 L-2,2 L-1,2 L-1,1 L0,1 Z " fill="#E1D2C0" transform="translate(230,224)"/>
<path d="M0,0 L1,0 L1,4 L2,4 L2,5 L3,5 L3,8 L4,8 L4,10 L5,10 L5,12 L6,12 L6,14 L7,14 L7,16 L9,16 L9,28 L11,28 L11,34 L12,34 L12,47 L-57,47 L-57,46 L-62,46 L-62,38 L-60,38 L-60,44 L9,44 L9,34 L8,34 L8,22 L6,22 L6,21 L5,21 L5,14 L4,14 L4,12 L3,12 L3,9 L2,9 L2,6 L0,6 Z " fill="#A3A39E" transform="translate(343,222)"/>
<path d="M0,0 L5,0 L5,2 L6,2 L6,138 L5,138 L5,4 L1,4 L1,3 L-64,3 L-64,2 L-63,2 L-63,1 L0,1 Z " fill="#AFA9A2" transform="translate(645,176)"/>
<path d="M0,0 L5,0 L5,2 L6,2 L6,4 L8,4 L8,7 L9,7 L9,8 L10,8 L10,5 L13,5 L13,9 L14,9 L14,13 L17,13 L17,15 L18,15 L18,17 L19,17 L19,20 L22,20 L22,22 L25,22 L25,21 L26,21 L26,23 L27,23 L27,24 L25,24 L25,26 L26,26 L26,25 L30,25 L30,26 L28,26 L28,27 L29,27 L29,28 L27,28 L27,31 L26,31 L26,28 L25,28 L25,32 L26,32 L26,36 L27,36 L27,32 L29,32 L29,38 L28,38 L28,42 L29,42 L29,45 L31,45 L31,47 L32,47 L32,56 L33,56 L33,58 L34,58 L34,73 L33,73 L33,64 L32,64 L32,58 L30,58 L30,46 L28,46 L28,44 L27,44 L27,42 L26,42 L26,40 L25,40 L25,38 L24,38 L24,35 L23,35 L23,34 L22,34 L22,30 L21,30 L21,28 L20,28 L20,27 L19,27 L19,24 L18,24 L18,22 L17,22 L17,21 L16,21 L16,18 L15,18 L15,17 L14,17 L14,16 L12,16 L12,14 L11,14 L11,11 L10,11 L10,10 L7,10 L7,8 L4,8 L4,6 L3,6 L3,5 L2,5 L2,4 L1,4 L1,2 L0,2 Z " fill="#EEE0CC" transform="translate(322,192)"/>
<path d="M0,0 L8,0 L8,1 L9,1 L9,2 L14,2 L14,0 L17,0 L17,1 L18,1 L18,4 L17,4 L17,8 L16,8 L16,10 L15,10 L15,11 L13,11 L13,13 L12,13 L12,14 L11,14 L11,17 L10,17 L10,19 L9,19 L9,20 L6,20 L6,21 L5,21 L5,19 L6,19 L6,18 L7,18 L7,17 L8,17 L8,16 L9,16 L9,14 L10,14 L10,13 L11,13 L11,12 L12,12 L12,9 L13,9 L13,7 L10,7 L10,8 L9,8 L9,9 L8,9 L8,10 L7,10 L7,11 L5,11 L5,12 L4,12 L4,13 L3,13 L3,14 L1,14 L1,15 L0,15 L0,16 L-1,16 L-1,17 L-2,17 L-2,18 L-5,18 L-5,19 L-6,19 L-6,20 L-7,20 L-7,21 L-8,21 L-8,22 L-9,22 L-9,23 L-10,23 L-10,24 L-11,24 L-11,26 L-13,26 L-13,27 L-14,27 L-14,24 L-13,24 L-13,22 L-11,22 L-11,20 L-10,20 L-10,19 L-9,19 L-9,18 L-8,18 L-8,17 L-7,17 L-7,16 L-3,16 L-3,13 L-2,13 L-2,12 L-1,12 L-1,10 L1,10 L1,9 L2,9 L2,8 L3,8 L3,7 L4,7 L4,4 L0,4 L0,3 L-1,3 L-1,2 L0,2 Z " fill="#2C8DA9" transform="translate(275,464)"/>
<path d="M0,0 L35,0 L35,1 L37,1 L37,2 L43,2 L43,3 L45,3 L45,4 L49,4 L49,5 L53,5 L53,6 L57,6 L57,8 L52,8 L52,7 L51,7 L51,6 L40,6 L40,4 L34,4 L34,3 L-3,3 L-3,4 L-11,4 L-11,6 L-21,6 L-21,7 L-22,7 L-22,8 L-25,8 L-25,9 L-27,9 L-27,10 L-29,10 L-29,11 L-33,11 L-33,10 L-30,10 L-30,9 L-29,9 L-29,8 L-27,8 L-27,7 L-25,7 L-25,6 L-24,6 L-24,5 L-19,5 L-19,4 L-15,4 L-15,3 L-14,3 L-14,2 L-6,2 L-6,1 L0,1 Z " fill="#778184" transform="translate(227,160)"/>
<path d="M0,0 L65,0 L65,1 L3,1 L3,5 L1,5 L1,134 L0,134 Z " fill="#6E797D" transform="translate(581,179)"/>
<path d="M0,0 L3,0 L3,2 L2,2 L2,5 L1,5 L1,6 L0,6 L0,7 L-1,7 L-1,9 L-2,9 L-2,10 L-3,10 L-3,11 L-4,11 L-4,12 L-5,12 L-5,15 L-7,15 L-7,17 L-9,17 L-9,18 L-10,18 L-10,19 L-11,19 L-11,20 L-13,20 L-13,21 L-16,21 L-16,22 L-17,22 L-17,23 L-24,23 L-24,20 L-23,20 L-23,19 L-21,19 L-21,17 L-20,17 L-20,16 L-19,16 L-19,15 L-18,15 L-18,14 L-17,14 L-17,13 L-16,13 L-16,12 L-15,12 L-15,11 L-12,11 L-12,10 L-11,10 L-11,9 L-10,9 L-10,8 L-9,8 L-9,7 L-7,7 L-7,6 L-6,6 L-6,5 L-5,5 L-5,4 L-3,4 L-3,3 L-2,3 L-2,2 L-1,2 L-1,1 L0,1 Z " fill="#A2CCCB" transform="translate(285,471)"/>
<path d="M0,0 L12,0 L12,1 L18,1 L18,2 L24,2 L24,3 L32,3 L32,4 L36,4 L36,6 L21,6 L21,5 L11,5 L11,4 L2,4 L2,3 L-61,3 L-61,2 L8,2 L8,1 L0,1 Z " fill="#87A5A5" transform="translate(712,328)"/>
<path d="M0,0 L1,0 L1,1 L0,1 Z M-1,1 L0,1 L0,158 L-1,158 Z " fill="#EEE0CC" transform="translate(446,404)"/>
<path d="M0,0 L72,0 L72,1 L70,1 L70,2 L3,2 L3,3 L2,3 L2,8 L1,8 L1,5 L0,5 L0,4 L-1,4 L-1,1 L0,1 Z " fill="#EEE0CC" transform="translate(372,175)"/>
<path d="M0,0 L1,0 L1,153 L0,153 Z " fill="#8BB9BB" transform="translate(444,406)"/>
<path d="M0,0 L1,0 L1,6 L-2,6 L-2,34 L-1,34 L-1,36 L0,36 L0,38 L1,38 L1,41 L2,41 L2,43 L3,43 L3,45 L5,45 L5,46 L6,46 L6,47 L7,47 L7,48 L8,48 L8,49 L9,49 L9,50 L13,50 L13,52 L15,52 L15,53 L17,53 L17,54 L18,54 L18,55 L21,55 L21,56 L22,56 L22,57 L23,57 L23,59 L24,59 L24,60 L21,60 L21,58 L19,58 L19,57 L16,57 L16,56 L15,56 L15,55 L14,55 L14,54 L13,54 L13,53 L11,53 L11,52 L8,52 L8,50 L7,50 L7,49 L6,49 L6,48 L5,48 L5,47 L3,47 L3,46 L1,46 L1,42 L0,42 L0,40 L-1,40 L-1,38 L-2,38 L-2,36 L-3,36 L-3,28 L-5,28 L-5,14 L-4,14 L-4,9 L-3,9 L-3,4 L-1,4 L-1,1 L0,1 Z " fill="#828C8C" transform="translate(205,244)"/>
<path d="M0,0 L2,0 L2,1 L4,1 L4,2 L6,2 L6,3 L8,3 L8,4 L9,4 L9,5 L12,5 L12,6 L16,6 L16,7 L18,7 L18,8 L20,8 L20,10 L22,10 L22,11 L24,11 L24,12 L30,12 L30,13 L33,13 L33,14 L35,14 L35,15 L36,15 L36,16 L40,16 L40,17 L41,17 L41,18 L32,18 L32,15 L26,15 L26,14 L20,14 L20,13 L21,13 L21,12 L16,12 L16,13 L12,13 L12,11 L11,11 L11,9 L9,9 L9,8 L8,8 L8,6 L6,6 L6,5 L5,5 L5,4 L2,4 L2,3 L1,3 L1,1 L0,1 Z " fill="#EEE0CC" transform="translate(188,362)"/>
<path d="M0,0 L1,0 L1,1 L0,1 Z M-1,1 L0,1 L0,136 L-1,136 Z " fill="#AFA9A2" transform="translate(581,177)"/>
<path d="M0,0 L1,0 L1,131 L0,131 Z " fill="#EEE0CC" transform="translate(651,178)"/>
<path d="M0,0 L2,0 L2,1 L1,1 L1,2 L0,2 L0,3 L-6,3 L-6,4 L-10,4 L-10,6 L-22,6 L-22,7 L-23,7 L-23,8 L-26,8 L-26,9 L-29,9 L-29,10 L-36,10 L-36,11 L-38,11 L-38,12 L-44,12 L-44,13 L-46,13 L-46,14 L-48,14 L-48,15 L-52,15 L-52,14 L-50,14 L-50,13 L-48,13 L-48,12 L-47,12 L-47,11 L-42,11 L-42,10 L-39,10 L-39,9 L-38,9 L-38,8 L-34,8 L-34,7 L-31,7 L-31,6 L-26,6 L-26,5 L-18,5 L-18,4 L-16,4 L-16,3 L-14,3 L-14,2 L-1,2 L-1,1 L0,1 Z " fill="#999998" transform="translate(442,328)"/>
<path d="M0,0 L1,0 L1,110 L0,110 Z " fill="#EEE0CC" transform="translate(445,178)"/>
<path d="M0,0 L1,0 L1,1 L2,1 L2,2 L3,2 L3,9 L2,9 L2,10 L1,10 L1,14 L0,14 L0,13 L-1,13 L-1,31 L-2,31 L-2,29 L-3,29 L-3,1 L0,1 Z " fill="#E1D2C0" transform="translate(206,249)"/>
<path d="M0,0 L2,0 L2,1 L5,1 L5,2 L6,2 L6,3 L12,3 L12,4 L14,4 L14,5 L20,5 L20,7 L23,7 L23,8 L24,8 L24,9 L26,9 L26,11 L29,11 L29,12 L22,12 L22,10 L13,10 L13,9 L14,9 L14,8 L13,8 L13,6 L12,6 L12,5 L5,5 L5,3 L2,3 L2,2 L0,2 Z " fill="#828C8C" transform="translate(264,317)"/>
<path d="M0,0 L1,0 L1,1 L2,1 L2,2 L3,2 L3,3 L6,3 L6,4 L7,4 L7,6 L8,6 L8,7 L9,7 L9,8 L10,8 L10,10 L11,10 L11,13 L12,13 L12,14 L13,14 L13,18 L14,18 L14,19 L15,19 L15,28 L14,28 L14,24 L13,24 L13,21 L12,21 L12,18 L11,18 L11,16 L9,16 L9,14 L8,14 L8,12 L7,12 L7,10 L6,10 L6,9 L5,9 L5,8 L4,8 L4,4 L2,4 L2,3 L1,3 L1,2 L0,2 Z " fill="#A3A39E" transform="translate(267,232)"/>
<path d="M0,0 L1,0 L1,1 L5,1 L5,2 L7,2 L7,3 L9,3 L9,4 L11,4 L11,5 L14,5 L14,6 L17,6 L17,7 L19,7 L19,8 L21,8 L21,9 L25,9 L25,10 L27,10 L27,11 L32,11 L32,12 L33,12 L33,13 L34,13 L34,14 L35,14 L35,15 L33,15 L33,14 L32,14 L32,13 L31,13 L31,12 L23,12 L23,11 L21,11 L21,10 L19,10 L19,9 L18,9 L18,8 L14,8 L14,7 L9,7 L9,6 L8,6 L8,5 L7,5 L7,4 L5,4 L5,3 L0,3 Z " fill="#828C8C" transform="translate(229,303)"/>
<path d="M0,0 L65,0 L65,1 L0,1 Z " fill="#6E797D" transform="translate(581,313)"/>
</svg>
